<svg width="64" height="64" viewBox="0 0 64 64" fill="none" xmlns="http://www.w3.org/2000/svg">
  <defs>
    <linearGradient id="g1" x1="0" y1="0" x2="64" y2="64" gradientUnits="userSpaceOnUse">
      <stop offset="0%" stop-color="#f97316" />
      <stop offset="50%" stop-color="#e11d48" />
      <stop offset="100%" stop-color="#7c3aed" />
    </linearGradient>
    <linearGradient id="g2" x1="0" y1="0" x2="1" y2="1">
      <stop offset="0%" stop-color="#fbbf24" />
      <stop offset="100%" stop-color="#fff7ed" />
    </linearGradient>
  </defs>

  <!-- Left ear -->
  <polygon points="10,38 18,6 28,30" fill="url(#g1)" />
  <!-- Right ear -->
  <polygon points="54,38 46,6 36,30" fill="url(#g1)" />

  <!-- Face -->
  <polygon points="10,38 16,58 32,62 48,58 54,38 32,28" fill="url(#g1)" />

  <!-- Left eye socket -->
  <polygon points="18,36 24,30 30,36 24,42" fill="rgba(0,0,0,0.45)" />
  <!-- Right eye socket -->
  <polygon points="34,36 40,30 46,36 40,42" fill="rgba(0,0,0,0.45)" />

  <!-- Left pupil -->
  <polygon points="24,32.5 27,36 24,39.5 21,36" fill="url(#g2)" />
  <!-- Right pupil -->
  <polygon points="40,32.5 43,36 40,39.5 37,36" fill="url(#g2)" />

  <!-- Muzzle -->
  <polygon points="32,46 36,50 32,54 28,50" fill="rgba(255,255,255,0.22)" />

  <!-- Inner ear highlights -->
  <polygon points="13,36 18,14 24,30" fill="rgba(251,191,36,0.35)" />
  <polygon points="51,36 46,14 40,30" fill="rgba(251,191,36,0.35)" />
</svg>
